<svg version="1.1" id="Layer_1" xmlns="http://www.w3.org/2000/svg" xmlns:xlink="http://www.w3.org/1999/xlink" x="0px" y="0px"
	 width="100%" viewBox="0 0 480 320" enable-background="new 0 0 480 320" xml:space="preserve">
<path fill="#000000" opacity="1.000000" stroke="none" 
	d="
M418.531342,1.000000 
	C419.584534,3.717818 418.856506,5.274336 416.172180,6.950895 
	C408.947327,11.463346 407.778015,19.557161 406.510406,26.996387 
	C404.005859,41.694801 401.847504,56.467983 402.848419,71.510124 
	C403.294037,78.207207 402.830872,78.376251 395.935028,78.384491 
	C385.605225,78.396843 375.272247,78.244789 364.947296,78.469658 
	C361.168243,78.551964 359.889801,77.174248 359.989136,73.562935 
	C360.126495,68.569672 359.993652,63.567368 359.901245,58.570332 
	C359.871765,56.976986 360.186981,55.252296 358.854553,53.645195 
	C355.548615,55.111927 354.476013,58.296780 353.079041,60.910034 
	C337.071838,90.854790 321.221588,120.883362 305.310425,150.879501 
	C298.291901,164.110962 291.295685,177.355148 284.138977,190.511780 
	C282.478973,193.563431 282.252350,195.996521 283.977203,199.280579 
	C298.525513,226.979752 313.535004,254.418930 329.480469,281.339325 
	C331.338348,284.475922 333.584625,287.401581 335.830597,290.285034 
	C339.951385,295.575531 342.973633,295.809875 348.044769,291.318024 
	C353.104156,286.836548 356.631256,281.140900 360.018616,275.419769 
	C364.937073,267.112671 369.449463,258.565582 374.337280,250.239609 
	C376.581543,246.416687 376.273682,243.880661 372.038910,241.838745 
	C368.452332,240.109375 365.054871,237.953690 361.697388,235.794373 
	C359.165833,234.166214 358.690918,232.371017 361.756989,230.547623 
	C382.066742,218.469391 402.341827,206.332840 422.650818,194.253311 
	C423.892029,193.515060 425.229401,192.664841 426.937500,193.299210 
	C428.510864,195.112198 427.944397,197.374420 427.949097,199.459930 
	C427.979614,212.954956 427.929016,226.450195 427.896881,239.945328 
	C427.877686,248.002518 427.928925,248.436157 420.312714,249.452667 
	C415.963623,250.033142 414.090851,252.197205 412.275391,255.672653 
	C405.263062,269.096802 397.974945,282.376587 390.849823,295.742249 
	C386.741638,303.448547 379.433289,305.185974 371.817200,305.289032 
	C350.840240,305.572815 329.856567,305.448578 308.876160,305.350189 
	C298.919220,305.303497 292.288086,301.133392 287.365723,291.652496 
	C270.345642,258.870178 252.345413,226.597046 234.744522,194.115875 
	C216.987701,161.346970 199.300797,128.541809 182.404587,95.315445 
	C175.539490,81.815239 168.384399,68.462440 161.344315,55.051472 
	C160.908432,54.221157 160.704758,53.091846 159.040222,53.064014 
	C157.964294,56.672806 158.494385,60.471329 158.484390,64.158226 
	C158.411728,90.949173 158.455048,117.740639 158.529755,144.531738 
	C158.607803,172.518021 158.840851,200.504044 158.852417,228.490250 
	C158.859070,244.575394 158.723373,260.639069 154.485413,276.391937 
	C150.189178,292.361450 142.258682,305.770294 128.840302,315.727264 
	C127.202484,316.942566 124.813927,317.718628 124.949974,320.724609 
	C96.312439,321.000000 67.624878,321.000000 38.279083,320.723541 
	C36.563805,319.658752 35.584045,318.728485 34.437580,318.104401 
	C24.446856,312.665741 16.707275,304.928650 10.698511,295.324371 
	C6.162528,288.074127 3.984727,279.876892 1.000000,272.000000 
	C1.000000,261.312439 1.000000,250.624878 1.223672,239.197998 
	C3.512865,233.382324 5.282369,228.160339 7.695440,223.254944 
	C17.847033,202.618332 34.550781,190.930984 57.164940,187.214645 
	C67.674698,185.487503 78.256638,186.151337 88.790367,185.465195 
	C90.715698,185.339783 91.690659,186.216202 91.730545,187.983078 
	C91.775398,189.969925 91.852264,192.524750 89.015236,192.368912 
	C85.599731,192.181305 82.451263,193.189392 79.182953,193.649628 
	C62.303947,196.026520 48.068256,203.203049 38.085865,217.324112 
	C27.478132,232.329788 25.055655,249.040375 27.533321,267.141632 
	C30.641363,289.848236 42.719601,305.390015 63.084255,314.695801 
	C70.478760,318.074768 78.560303,320.391113 86.873665,318.199554 
	C108.184647,312.581543 121.445656,298.527191 128.131714,277.891907 
	C132.795563,263.497772 133.324921,248.653107 133.183289,233.650879 
	C132.909576,204.656387 133.091141,175.657669 133.044525,146.660767 
	C133.041382,144.710510 133.458496,142.690201 132.534836,140.697464 
	C130.748550,141.122269 129.021927,141.513275 127.190369,141.634628 
	C116.684570,142.330688 106.348900,140.602890 96.020576,139.361710 
	C72.652695,136.553574 50.675087,116.758698 44.533943,94.036743 
	C40.594814,79.462151 39.771019,64.914024 43.787888,50.309528 
	C48.765846,32.210712 58.535831,17.808424 75.656075,8.829385 
	C81.902466,5.553347 88.860512,4.349196 95.000000,1.000000 
	C123.020897,1.000000 151.041794,1.000000 179.549973,1.373195 
	C181.144135,5.988225 183.483368,9.670851 185.499680,13.478921 
	C202.623856,45.820026 219.822647,78.121628 236.979919,110.445229 
	C246.105347,127.637154 255.155334,144.869232 264.318726,162.040863 
	C267.382660,167.782532 268.979492,167.858047 272.229279,162.165131 
	C275.607910,156.246552 278.488892,150.046295 281.700867,144.029755 
	C292.036072,124.670326 302.412048,105.332642 312.794495,85.998474 
	C321.606720,69.588242 330.502533,53.222683 339.261261,36.783989 
	C345.592499,24.901289 351.759644,12.931140 358.000000,0.999998 
	C378.020905,1.000000 398.041779,1.000000 418.531342,1.000000 
M132.405548,82.580055 
	C132.007034,66.417564 129.523651,50.544521 125.692673,34.868641 
	C123.950211,27.738697 121.537086,20.871145 117.879044,14.435077 
	C115.595451,10.417257 112.572998,9.154902 108.311005,10.670894 
	C94.708267,15.509377 83.545303,23.434206 76.202034,36.159378 
	C67.594261,51.075836 65.819870,67.151421 68.381927,83.866264 
	C71.402977,103.575554 81.476837,118.511024 99.497833,127.378784 
	C109.832451,132.464249 120.883438,135.022278 133.054764,133.650162 
	C132.564987,116.569923 134.043991,99.958099 132.405548,82.580055 
M152.073639,210.500000 
	C151.015305,165.448242 154.112045,120.371658 151.173920,75.325966 
	C150.363144,62.895828 149.042374,50.579433 145.917084,38.503872 
	C144.406570,32.667538 142.850128,26.837727 140.304932,20.804520 
	C138.837875,22.965481 139.384766,24.661848 139.402863,26.239277 
	C139.511826,35.727566 139.862946,45.214619 139.870178,54.702286 
	C139.913651,111.659561 139.884247,168.616882 139.882660,225.574188 
	C139.882263,239.501175 139.883560,253.437881 137.314758,267.194000 
	C135.229980,278.358215 132.250900,289.190491 125.690392,298.775787 
	C121.130341,305.438324 116.071930,311.555115 108.120537,316.667938 
	C117.973038,315.373993 131.291428,306.036377 137.724731,297.201538 
	C148.554749,282.328796 151.529495,265.115448 152.318146,247.433136 
	C152.851120,235.482834 152.196777,223.479568 152.073639,210.500000 
M9.352657,274.383362 
	C14.886393,297.890167 35.714725,314.339844 49.984745,316.067871 
	C28.957499,301.431335 20.451309,281.370636 20.171192,256.535278 
	C19.891020,231.694962 29.546459,212.239807 48.495441,196.724365 
	C33.958591,200.951157 22.748949,209.297043 15.545478,222.424698 
	C6.679487,238.582153 5.410104,255.822495 9.352657,274.383362 
M60.088276,72.263802 
	C61.196491,48.492126 67.572159,27.154366 88.553810,12.484022 
	C86.445877,11.645030 85.236572,12.304549 84.024521,12.795401 
	C73.049980,17.239836 64.444969,24.538755 58.032463,34.456238 
	C48.043362,49.905231 46.679676,67.028450 49.224548,84.542213 
	C51.719501,101.712418 60.585930,115.179565 75.341179,124.607849 
	C81.228539,128.369736 85.295242,129.965256 90.065895,129.904785 
	C79.527695,122.626884 71.912216,113.440880 66.815109,102.069931 
	C62.669495,92.821648 61.588844,82.951439 60.088276,72.263802 
z"/>
<path fill="#000000" opacity="1.000000" stroke="none" 
	d="
M481.000000,203.531342 
	C477.797852,205.467651 476.995239,208.738937 475.485565,211.444077 
	C467.326385,226.064056 455.193359,236.339920 440.287811,243.495193 
	C435.877289,245.612411 433.965302,244.337952 433.953278,239.492554 
	C433.895813,216.345505 433.912659,193.198090 433.986206,170.051071 
	C434.001068,165.366058 435.134247,164.693756 439.425903,166.985031 
	C450.870483,173.095169 462.222229,179.379105 473.616119,185.584351 
	C475.342804,186.524719 476.926331,187.833023 479.287720,187.869308 
	C481.096527,184.478226 479.579071,182.311569 476.664307,180.667892 
	C466.231567,174.784698 455.795319,168.907562 445.341370,163.062180 
	C436.336578,158.027130 427.296143,153.055817 418.292145,148.019409 
	C415.386414,146.394089 414.695709,144.628403 418.053864,142.601761 
	C431.578705,134.439514 445.106812,126.281654 458.558716,118.000397 
	C461.016602,116.487289 462.508301,116.908051 464.590149,118.796074 
	C470.528290,124.181305 474.099304,131.138763 478.061249,137.864365 
	C478.812897,139.140381 479.643677,140.369766 480.718964,141.810333 
	C481.000000,162.354233 481.000000,182.708450 481.000000,203.531342 
z"/>
<path fill="#000000" opacity="1.000000" stroke="none" 
	d="
M331.013672,186.861237 
	C329.295471,177.973328 327.729919,169.490860 330.946991,160.478928 
	C336.897430,161.800980 341.419128,165.687424 346.406799,168.388962 
	C363.367798,177.575760 380.092438,187.198822 396.913300,196.644623 
	C398.189545,197.361343 399.947815,197.714752 399.836029,199.601013 
	C399.747192,201.100327 398.332672,201.620407 397.176117,202.311722 
	C383.754791,210.333984 370.297638,218.299210 356.988525,226.504272 
	C353.891907,228.413345 351.909393,227.952408 349.771667,225.330185 
	C340.600708,214.080719 333.422272,201.875046 331.013672,186.861237 
z"/>
<path fill="#000000" opacity="1.000000" stroke="none" 
	d="
M380.510986,129.702545 
	C380.486481,146.348801 380.486481,162.585678 380.486481,179.068863 
	C376.553467,179.164917 373.963104,176.797012 371.173065,175.297043 
	C359.753998,169.157990 348.550446,162.616760 337.108307,156.522568 
	C333.162384,154.420929 331.867645,152.159561 333.423370,147.762863 
	C341.157257,125.905991 355.407593,110.099075 376.465973,100.369461 
	C379.894379,98.785446 381.106873,99.862427 381.038055,103.325958 
	C380.866028,111.981606 380.702454,120.637421 380.510986,129.702545 
z"/>
<path fill="#000000" opacity="1.000000" stroke="none" 
	d="
M435.102844,125.160553 
	C420.477722,133.846848 406.114502,142.261444 391.929199,150.966034 
	C388.261200,153.216843 387.122070,152.270905 387.103699,148.497772 
	C387.027557,132.852814 387.025146,117.207512 386.944641,101.562599 
	C386.927002,98.133873 388.603851,96.547264 391.868500,95.801231 
	C401.404205,93.622139 410.913055,93.298195 420.571381,95.017975 
	C431.714081,97.002075 441.831207,101.423119 451.396057,107.267410 
	C457.070099,110.734352 456.965576,112.784370 451.071075,116.151672 
	C445.870544,119.122513 440.645355,122.050140 435.102844,125.160553 
z"/>
</svg>